<?xml version="1.0" encoding="utf-8"?>
<!DOCTYPE svg PUBLIC "-//W3C//DTD SVG 1.1//EN" "http://www.w3.org/Graphics/SVG/1.1/DTD/svg11.dtd">
<svg version="1.1" id="Layer_1" xmlns="http://www.w3.org/2000/svg" xmlns:xlink="http://www.w3.org/1999/xlink" x="0px" y="0px"
     width="42px" height="38px" viewBox="0 1.031 55.729 51.354" enable-background="new 0 1.031 55.729 51.354"
     xml:space="preserve">
<path fill="#FFFFFF" d="M31.105,20.473H21.31c-3.481,0-5.468,0.521-5.468,5.257v4.743c0,3.227,0.951,5.234,4.364,5.234h2.777
    c3.061,0,3.779-1.174,3.779-3.688V27.37c0-1.616,1.32-2.939,2.938-2.939h5.962c1.615,0,2.939,1.324,2.939,2.939v4.33
    c0,3.995,3.11,3.686,5.791,3.686h7.114c2.321,0,4.221,1.898,4.221,4.219v8.562c0,2.319-1.899,4.219-4.221,4.219h-8.56
    c-2.321,0-4.219-1.898-4.219-4.219v-7.016c0-3.093-0.669-4.881-4.561-4.881h-2.304c-2.745,0-4.559,0.756-4.559,4.1v4.379
    c0,1.645-1.344,2.984-2.985,2.984h-6.053c-1.644,0-2.985-1.341-2.985-2.984v-4.082c0-3.842-2.004-4.846-5.742-4.846h-5.61
    C1.77,35.819,0,34.049,0,31.885v-7.978c0-2.161,1.771-3.933,3.932-3.933h6.06c4.523,0,5.493-1.607,5.493-5.457V4.852
    c0-2.101,1.719-3.821,3.821-3.821h11.8c2.101,0,3.819,1.72,3.819,3.821v11.8C34.925,18.753,33.206,20.473,31.105,20.473"/>
</svg>
